<?xml version="1.0" encoding="utf-8"?>
<!-- Generator: Adobe Illustrator 16.0.0, SVG Export Plug-In . SVG Version: 6.00 Build 0)  -->
<!DOCTYPE svg PUBLIC "-//W3C//DTD SVG 1.1//EN" "http://www.w3.org/Graphics/SVG/1.1/DTD/svg11.dtd">
<svg version="1.1" id="Layer_1" xmlns="http://www.w3.org/2000/svg" xmlns:xlink="http://www.w3.org/1999/xlink" x="0px" y="0px"
	 width="40px" height="32px" viewBox="236 240 40 32" enable-background="new 236 240 40 32" xml:space="preserve">
<g>
	<path d="M272.77,245.1h-6.49l-3.885-4.08c0,0-0.02-0.02-0.029-0.02l-0.02-0.021l0,0c-0.576-0.6-1.355-0.98-2.24-0.98h-8.077
		c-0.942,0-1.779,0.42-2.365,1.09v0.01l-3.798,4h-6.634c-1.789,0-3.231,1.46-3.231,3.32v20.21c0,1.86,1.442,3.37,3.231,3.37h33.539
		c1.778,0,3.23-1.51,3.23-3.37v-20.21C276,246.56,274.548,245.1,272.77,245.1z M256,266.95c-4.894,0-8.885-4.161-8.885-9.26
		c0-5.11,3.991-9.26,8.885-9.26c4.904,0,8.885,4.15,8.885,9.26C264.885,262.789,260.904,266.95,256,266.95z M272.163,250.45
		c-0.74,0-1.346-0.63-1.346-1.41c0-0.78,0.605-1.41,1.346-1.41c0.741,0,1.347,0.629,1.347,1.41
		C273.51,249.82,272.904,250.45,272.163,250.45z"/>
	<path d="M256,250.69c-3.711,0-6.711,3.13-6.711,7c0,3.86,3,6.999,6.711,6.999c3.702,0,6.712-3.13,6.712-6.999
		C262.712,253.82,259.702,250.69,256,250.69z"/>
</g>
</svg>
