<?xml version="1.0" encoding="iso-8859-1"?>
<!-- Generator: Adobe Illustrator 16.0.0, SVG Export Plug-In . SVG Version: 6.00 Build 0)  -->
<!DOCTYPE svg PUBLIC "-//W3C//DTD SVG 1.1//EN" "http://www.w3.org/Graphics/SVG/1.1/DTD/svg11.dtd">
<svg version="1.1" id="Capa_1" xmlns="http://www.w3.org/2000/svg" xmlns:xlink="http://www.w3.org/1999/xlink" x="0px" y="0px"
	 width="512px" height="512px" viewBox="0 0 512 512" style="enable-background:new 0 0 512 512;" xml:space="preserve">
<g>
	<g>
		<path d="M256,0C114.609,0,0,114.609,0,256c0,141.391,114.609,256,256,256c141.391,0,256-114.609,256-256
			C512,114.609,397.391,0,256,0z M256,472c-119.297,0-216-96.703-216-216S136.703,40,256,40s216,96.703,216,216S375.297,472,256,472
			z"/>
		<path d="M351.938,128C334.266,128,320,142.297,320,159.969C320,177.641,334.266,192,351.938,192
			C369.672,192,384,177.641,384,159.969C384,142.297,369.672,128,351.938,128z"/>
		<path d="M255.938,128C238.266,128,224,142.297,224,159.969C224,177.641,238.266,192,255.938,192
			C273.672,192,288,177.641,288,159.969C288,142.297,273.672,128,255.938,128z"/>
		<path d="M160,128c-17.688,0-32,14.297-32,31.969C128,177.641,142.312,192,160,192c17.656,0,32-14.359,32-32.031
			C192,142.297,177.656,128,160,128z"/>
	</g>
</g>
<g>
</g>
<g>
</g>
<g>
</g>
<g>
</g>
<g>
</g>
<g>
</g>
<g>
</g>
<g>
</g>
<g>
</g>
<g>
</g>
<g>
</g>
<g>
</g>
<g>
</g>
<g>
</g>
<g>
</g>
</svg>
